<?xml version="1.0" encoding="utf-8"?>
<!-- Generator: Adobe Illustrator 24.0.0, SVG Export Plug-In . SVG Version: 6.00 Build 0)  -->
<svg version="1.1" id="Layer_1" xmlns="http://www.w3.org/2000/svg" xmlns:xlink="http://www.w3.org/1999/xlink" x="0px" y="0px"
	 width="250.1px" height="53px" viewBox="0 0 250.1 53" style="enable-background:new 0 0 250.1 53;" xml:space="preserve">
<style type="text/css">
	.st0{fill:#1796FF;}
</style>
<g id="sz-text">
	<path class="st0" d="M174.5,36v-5.4c0-4.6-1.3-8.2-3.8-10.9s-6-4-10.5-4c-4.9,0-8.6,1.5-11.3,4.7c-2.6,3.2-3.9,7.3-3.9,12.3v1.2
		c0,4.6,1.4,8.4,4.3,11.4c2.9,3,6.7,4.6,11.6,4.6c2.6,0,5.1-0.3,7.3-1c2.3-0.7,4.1-1.6,5.6-2.6l-2.4-6.3c-1.8,0.7-3.3,1.3-4.4,1.6
		c-1.2,0.3-2.7,0.5-4.7,0.5c-1.9,0-3.5-0.5-4.6-1.6c-1.2-1.1-1.8-2.5-2.1-4.1l0.1-0.2L174.5,36z M155.7,29.6l-0.1-0.2
		c0.2-1.8,0.6-3.2,1.4-4.2c0.7-1.1,1.9-1.6,3.3-1.6c1.5,0,2.5,0.5,3.2,1.3c0.7,0.9,1,2.2,1,3.8v0.8L155.7,29.6z"/>
	<path class="st0" d="M198.2,40.1c-0.6,0.6-1.3,1.1-2.2,1.4c-0.8,0.3-1.8,0.5-2.9,0.5c-1.3,0-2.3-0.5-3-1.4s-1.1-2.3-1.1-4.2V15.9
		h-10.4v20.4c0,4.7,1,8.1,2.9,10.4c2,2.2,4.7,3.3,8.1,3.3c2,0,3.7-0.4,5.3-1.2s2.9-1.9,3.9-3.4l0.7,4.5h9.1v-34h-10.5L198.2,40.1z"
		/>
	<path class="st0" d="M238.3,33.1c-1.9-1.6-4.9-2.8-8.9-3.5c-2.6-0.5-4.3-1-5.1-1.6s-1.3-1.4-1.3-2.2c0-0.9,0.4-1.7,1.1-2.2
		c0.7-0.6,1.6-0.9,2.7-0.9c1.5,0,2.5,0.3,3.2,1s1,1.7,1,3h10l0.1-0.2c0.1-3.1-1.1-5.6-3.7-7.6c-2.6-2-6.1-2.9-10.5-2.9
		c-4.2,0-7.5,1-9.9,3s-3.6,4.5-3.7,7.4c0,2.7,1,4.9,2.9,6.5s4.8,2.8,8.7,3.5c2.4,0.5,4.1,1.1,5,1.7c0.9,0.6,1.4,1.4,1.4,2.2
		c0,1-0.4,1.8-1.1,2.3c-0.7,0.5-1.8,0.8-3.1,0.8c-1.7,0-2.9-0.4-3.8-1c-0.9-0.7-1.4-1.8-1.4-3.4h-9.3l-0.1,0.2
		c-0.1,2.8,1.1,5.3,3.7,7.6c2.6,2.3,6.1,3.4,10.6,3.4c4.3,0,7.8-1,10.4-2.9c2.6-1.9,3.9-4.3,3.9-7.3
		C241.2,36.9,240.2,34.6,238.3,33.1z"/>
	<polygon class="st0" points="141.4,41.5 120.1,41.5 141.2,7.8 141.2,3.1 101.9,3.1 106.7,11.4 106.7,11.4 127.7,11.4 106.8,44.9 
		106.8,49.8 146.3,49.9 	"/>
	<path class="st0" d="M76.6,31.6h24.3v-2.5c0-4-1.1-7.2-3.4-9.6s-5.3-3.6-8.9-3.6c-3.8,0-7,1.5-9.6,4.6c-2.6,3-3.9,6.9-3.9,11.5v1.9
		c0,4.4,1.3,8.1,4,11.1s5.9,4.5,9.6,4.5c2.5,0,4.6-0.4,6.5-1.1c1.8-0.7,3.4-1.8,4.7-3.2L98.8,44c-1.2,1.3-2.6,2.3-4.2,3
		s-3.7,1-6.1,1c-3.4,0-6.2-1.4-8.5-4.1c-2.3-2.7-3.4-6-3.4-9.9v-2C76.6,32,76.6,31.6,76.6,31.6z M80.4,21c2.1-2.3,4.8-3.5,8-3.5
		s5.8,1.1,7.8,3.3s3,4.9,3,8.2v1H76.9l-0.1-0.2C77.1,26.3,78.3,23.4,80.4,21z"/>
	<path class="st0" d="M69.7,48.2c-0.4,0-0.9,0.1-1.4,0.1c-1.5,0-2.6-0.6-3.5-1.7c-0.9-1.1-1.3-3-1.3-5.6V17.5h7.9v-1.6h-7.9V7.2
		h-1.6v8.7h-6v1.6h6V41c0,3.1,0.6,5.4,1.7,6.8c1.1,1.4,2.8,2.1,4.9,2.1c0.7,0,1.3,0,1.8-0.1s1.1-0.2,1.6-0.3L71.4,48
		C70.7,48.1,70.1,48.1,69.7,48.2z"/>
	<rect x="47" y="15.7" class="st0" width="1.6" height="34.1"/>
	<polygon class="st0" points="48.6,7.1 47,7.1 46.9,11.3 48.6,11.3 	"/>
	<path class="st0" d="M8.8,14.1c0,2.6,1,4.7,3,6.5c2,1.7,5.6,3.2,10.8,4.6c5.1,1.3,8.9,3,11.4,4.9c2.6,1.9,3.9,4.7,3.9,8.2
		c0,3.6-1.5,6.5-4.4,8.5c-2.9,2.1-6.6,3.1-11.1,3.1c-0.1,0-0.1,0-0.2,0l0,0H4.1L3,48.2h19.1l0,0c0.1,0,0.2,0,0.3,0
		c4,0,7.3-0.9,9.9-2.7s3.9-4.2,3.9-7.1c0-2.9-1-5.1-3.1-6.9c-2.1-1.7-5.7-3.3-10.9-4.7s-9-3-11.4-4.8s-3.6-4.4-3.6-7.8
		s1.4-6.1,4.3-8.1c2.7-2,6.2-3,10.4-3l0,0h0.3h0.1l0,0h18.2l1,1.7H22.2c-4.1,0-7.3,0.9-9.7,2.8C10,9.3,8.8,11.5,8.8,14.1z"/>
	<g>
		<path class="st0" d="M244.9,14.3c0-0.1,0-0.2,0-0.3v-0.2c0-0.2,0-0.3-0.1-0.5c-0.1-0.1-0.2-0.2-0.3-0.3c0.1-0.1,0.2-0.2,0.3-0.3
			s0.1-0.2,0.1-0.4c0-0.3-0.1-0.5-0.3-0.7s-0.5-0.3-0.9-0.3h-1v3.1h0.6v-1.2h0.6c0.2,0,0.3,0,0.4,0.1c0.1,0.1,0.1,0.2,0.1,0.4V14
			c0,0.1,0,0.2,0,0.3s0,0.2,0,0.2h0.6v-0.1C245,14.5,245,14.4,244.9,14.3z M244.2,12.7c-0.1,0.1-0.3,0.1-0.4,0.1h-0.5v-0.9h0.5
			c0.2,0,0.4,0,0.5,0.1s0.1,0.2,0.1,0.4C244.4,12.5,244.3,12.6,244.2,12.7z"/>
	</g>
	<g>
		<path class="st0" d="M243.8,16.3c-1.8,0-3.3-1.5-3.3-3.3s1.5-3.3,3.3-3.3s3.3,1.5,3.3,3.3S245.7,16.3,243.8,16.3z M243.8,10.2
			c-1.6,0-2.8,1.3-2.8,2.8s1.3,2.8,2.8,2.8s2.8-1.3,2.8-2.8S245.4,10.2,243.8,10.2z"/>
	</g>
</g>
</svg>
